<mxfile host="Electron" agent="Mozilla/5.0 (Windows NT 10.0; Win64; x64) AppleWebKit/537.36 (KHTML, like Gecko) draw.io/26.0.16 Chrome/132.0.6834.196 Electron/34.2.0 Safari/537.36" version="26.0.16">
  <diagram name="part_a" id="qkbAahYVpHyMETdE77l6">
    <mxGraphModel dx="1805" dy="580" grid="1" gridSize="10" guides="1" tooltips="1" connect="1" arrows="1" fold="1" page="1" pageScale="1" pageWidth="850" pageHeight="1100" math="0" shadow="0">
      <root>
        <mxCell id="0" />
        <mxCell id="1" parent="0" />
        <mxCell id="JcrcX6TeTzpuIKKFbnjt-2" value="" style="image;points=[];aspect=fixed;html=1;align=center;shadow=0;dashed=0;image=img/lib/allied_telesis/computer_and_terminals/Laptop.svg;" vertex="1" parent="1">
          <mxGeometry x="-42" y="150" width="177.46" height="180" as="geometry" />
        </mxCell>
        <mxCell id="JcrcX6TeTzpuIKKFbnjt-3" value="" style="curved=1;endArrow=none;html=1;rounded=0;entryX=0;entryY=0.5;entryDx=0;entryDy=0;strokeWidth=5;startFill=0;startArrow=none;" edge="1" parent="1" target="JcrcX6TeTzpuIKKFbnjt-4">
          <mxGeometry width="50" height="50" relative="1" as="geometry">
            <mxPoint x="96" y="295" as="sourcePoint" />
            <mxPoint x="450" y="310" as="targetPoint" />
            <Array as="points">
              <mxPoint x="190" y="320" />
              <mxPoint x="220" y="280" />
            </Array>
          </mxGeometry>
        </mxCell>
        <mxCell id="JcrcX6TeTzpuIKKFbnjt-4" value="&lt;font style=&quot;font-size: 23px;&quot;&gt;Kvaser&lt;/font&gt;" style="rounded=1;whiteSpace=wrap;html=1;fontColor=#FFFFFF;fillColor=#4D4D4D;" vertex="1" parent="1">
          <mxGeometry x="250" y="250" width="180" height="60" as="geometry" />
        </mxCell>
        <mxCell id="JcrcX6TeTzpuIKKFbnjt-5" value="" style="curved=1;endArrow=none;html=1;rounded=0;exitX=1;exitY=0.25;exitDx=0;exitDy=0;strokeWidth=5;startFill=0;" edge="1" parent="1" source="JcrcX6TeTzpuIKKFbnjt-4">
          <mxGeometry width="50" height="50" relative="1" as="geometry">
            <mxPoint x="280" y="360" as="sourcePoint" />
            <mxPoint x="590" y="265" as="targetPoint" />
            <Array as="points" />
          </mxGeometry>
        </mxCell>
        <mxCell id="JcrcX6TeTzpuIKKFbnjt-7" value="" style="shape=image;verticalLabelPosition=bottom;labelBackgroundColor=default;verticalAlign=top;aspect=fixed;imageAspect=0;image=data:image/png,iVBORw0KGgoAAAANSUhEUgAAAMgAAADICAYAAACtWK6eAAAABHNCSVQICAgIfAhkiAAAAAlwSFlzAAALEwAACxMBAJqcGAAABYlJREFUeJzt3U+InGcdB/DvJm0aTKGm9KD1oLQ9FGkJAbG1xYtUFCVoK5ZS1EuhIKhg8dBbD0XPYnOrB1Haekj9i1AQwZvakpuktjWloIGQQxOp0Jhmsx7eWbsu8/525p133nd29/OBh9088847z7zzfmeeP292EgAAAAAAAAAAAAAAAAAAAAAAAAAAAAAAAAAAAAAAAACgN2tjN2APuyHJQ0luS3I4yaFJuW5SDk5+HpiUaa5NytUk65OfV5NcmZTLSf6e5JeTf8OucGOSV5JsDFT+nOQDgzwz6MGTGS4cm+WJQZ7ZPtP20c5ijo3wmMdHeMw9T0CW47oRHvPQCI+55wnIcowx+eG1XIIx3un2g4Mt9b9NcmbBfd+V5IsL7oMZCchytH2CPJ/k5wvu+2uZHpBrC+6XKayD1NaSPJzkRJq1jFndl+TDU+pfTvKPBdv00SSfmFJ/Ls1076zeTfLrJC+mmQWDuX0/w0/XDl2e6u1o7UE+QdodTXIhe78beiXJLUneGbshq8jMR7uPZO+HI2mmh28duxGrSkBI9CRaCQgU9kMXom//TPLdjvfdvHJ3Lc1aydbfN8valrLV5pW960ney/tX9c4zA/WjTJ9dg7ndlemzPn8ds1EL+lumP6c7x2zUKtPFgoKAQEFAoCAgUBAQKAgIFAQECgICBQGBgoBAQUCgICBQEBAoCAgUBAQKAgIFAYGCgEBBQKAgIFAQECgICBQEBAoCAgUBgYKAQEFAoCAgUPDX3ed3e+b7LsBV8rGxG7DbCMj8Die5Z+xGMAxdLCgISLsrYzdgQP8ZuwHsPgeTvJHxv6Z52eXVeKOko+NJ3sr4J/Gyytkkd/d1sPYi3266s+uTPJDk0SQPJjmywL4uJjmV5BdJLs1536NJvjIpH1ygDe9MHv+FJH9I812HtBCQ+RxJciLJ15N8YYH9XEnyl8w+zjmU5N40Ye3qYpLHk/wuybsL7Ad2dFPG7x7NW15fypHY4wzOulnl43aupX6V27yyHLT+fTrJD9IM7odyNsnTST6e5Bst23itGczRtHdlNgfQa0k+leSZJBeK7buW80l+mOST+f+x5Gdatn+zzwMAlVkCstX1ST6f5KXifrOWl5J8Nu2XCQlIj1yL1c21OW97L82JfXOSz025/XSSk9vqvpNmHWa755L8foY2brfR4T77noB0U51s1W1t44C3kvxkW92XMz0gO03Nt4W3CjUtDNy6qU62auFtiHWn9ZZ6AelAQLqpQtB2gibjBsSKeQcC0k11slW39XG8dxpLtK3OV8GlhYB0s57k31Pq/5W6K9PHJ8hOAbnYUv92D4+97whINxtJfjal/qc73G+IgLyZ5E9T6ndqG/TqcJpFwEtpPjlOJrlhh/s8lulrFKembPurlm0fnaFtH0ryYpqLEs8n+V5cmNqJad7uLif59qQMaZbZqPNpLotnQbpYu4/B9oAEZFh9rGZbzxiQLtaw2gJyR5Jvbau7bc59sAQCMqy2d/9jaQb8i+yDJdDFGpbxwy4jIMPq4+9P6WINSECGdaaHfbzWwz5gZf043f+z1KzjFHpidXV4B9Is4t2fZpLkQJJvtmz7bJpxy+Ukf0zym+hiDUpAVkPbSe/1GZkxCBQEBAoCAgUBgYKAQEFAoCAgUBAQKAgIFAQECgICBQGBgoBAQUCgICBQEBAoCAgUBAQKAgIFAYGCgEBBQKAgIFAQECgICBQEBAoCAgUBgYKAQEFAoCAgUBAQKAgIFAQECgICBQGBgoBAQUCgICCry/ehrwABWQ1np9S9NngrYEV9Ncm1NJ8aG0nWk3xp1BaRJFkbuwH8z71JHkkTlOeSnB63OQAAAAAAAAAAAAAAAAAAAAAAAAAAAAAAAAAAAAAAAAAAPfsvvHAGmcFGQM4AAAAASUVORK5CYII=;rotation=90;" vertex="1" parent="1">
          <mxGeometry x="550" y="180" width="170" height="170" as="geometry" />
        </mxCell>
        <mxCell id="JcrcX6TeTzpuIKKFbnjt-8" value="" style="curved=1;endArrow=none;html=1;rounded=0;exitX=1;exitY=0.75;exitDx=0;exitDy=0;strokeWidth=5;startFill=0;" edge="1" parent="1" source="JcrcX6TeTzpuIKKFbnjt-4">
          <mxGeometry width="50" height="50" relative="1" as="geometry">
            <mxPoint x="400" y="290" as="sourcePoint" />
            <mxPoint x="600" y="360" as="targetPoint" />
            <Array as="points">
              <mxPoint x="510" y="290" />
              <mxPoint x="520" y="360" />
            </Array>
          </mxGeometry>
        </mxCell>
        <mxCell id="JcrcX6TeTzpuIKKFbnjt-9" value="" style="shape=image;verticalLabelPosition=bottom;labelBackgroundColor=default;verticalAlign=top;aspect=fixed;imageAspect=0;image=data:image/png,iVBORw0KGgoAAAANSUhEUgAAAMgAAADICAYAAACtWK6eAAAABHNCSVQICAgIfAhkiAAAAAlwSFlzAAALEwAACxMBAJqcGAAABYlJREFUeJzt3U+InGcdB/DvJm0aTKGm9KD1oLQ9FGkJAbG1xYtUFCVoK5ZS1EuhIKhg8dBbD0XPYnOrB1Haekj9i1AQwZvakpuktjWloIGQQxOp0Jhmsx7eWbsu8/525p133nd29/OBh9088847z7zzfmeeP292EgAAAAAAAAAAAAAAAAAAAAAAAAAAAAAAAAAAAAAAAACgN2tjN2APuyHJQ0luS3I4yaFJuW5SDk5+HpiUaa5NytUk65OfV5NcmZTLSf6e5JeTf8OucGOSV5JsDFT+nOQDgzwz6MGTGS4cm+WJQZ7ZPtP20c5ijo3wmMdHeMw9T0CW47oRHvPQCI+55wnIcowx+eG1XIIx3un2g4Mt9b9NcmbBfd+V5IsL7oMZCchytH2CPJ/k5wvu+2uZHpBrC+6XKayD1NaSPJzkRJq1jFndl+TDU+pfTvKPBdv00SSfmFJ/Ls1076zeTfLrJC+mmQWDuX0/w0/XDl2e6u1o7UE+QdodTXIhe78beiXJLUneGbshq8jMR7uPZO+HI2mmh28duxGrSkBI9CRaCQgU9kMXom//TPLdjvfdvHJ3Lc1aydbfN8valrLV5pW960ney/tX9c4zA/WjTJ9dg7ndlemzPn8ds1EL+lumP6c7x2zUKtPFgoKAQEFAoCAgUBAQKAgIFAQECgICBQGBgoBAQUCgICBQEBAoCAgUBAQKAgIFAYGCgEBBQKAgIFAQECgICBQEBAoCAgUBgYKAQEFAoCAgUPDX3ed3e+b7LsBV8rGxG7DbCMj8Die5Z+xGMAxdLCgISLsrYzdgQP8ZuwHsPgeTvJHxv6Z52eXVeKOko+NJ3sr4J/Gyytkkd/d1sPYi3266s+uTPJDk0SQPJjmywL4uJjmV5BdJLs1536NJvjIpH1ygDe9MHv+FJH9I812HtBCQ+RxJciLJ15N8YYH9XEnyl8w+zjmU5N40Ye3qYpLHk/wuybsL7Ad2dFPG7x7NW15fypHY4wzOulnl43aupX6V27yyHLT+fTrJD9IM7odyNsnTST6e5Bst23itGczRtHdlNgfQa0k+leSZJBeK7buW80l+mOST+f+x5Gdatn+zzwMAlVkCstX1ST6f5KXifrOWl5J8Nu2XCQlIj1yL1c21OW97L82JfXOSz025/XSSk9vqvpNmHWa755L8foY2brfR4T77noB0U51s1W1t44C3kvxkW92XMz0gO03Nt4W3CjUtDNy6qU62auFtiHWn9ZZ6AelAQLqpQtB2gibjBsSKeQcC0k11slW39XG8dxpLtK3OV8GlhYB0s57k31Pq/5W6K9PHJ8hOAbnYUv92D4+97whINxtJfjal/qc73G+IgLyZ5E9T6ndqG/TqcJpFwEtpPjlOJrlhh/s8lulrFKembPurlm0fnaFtH0ryYpqLEs8n+V5cmNqJad7uLif59qQMaZbZqPNpLotnQbpYu4/B9oAEZFh9rGZbzxiQLtaw2gJyR5Jvbau7bc59sAQCMqy2d/9jaQb8i+yDJdDFGpbxwy4jIMPq4+9P6WINSECGdaaHfbzWwz5gZf043f+z1KzjFHpidXV4B9Is4t2fZpLkQJJvtmz7bJpxy+Ukf0zym+hiDUpAVkPbSe/1GZkxCBQEBAoCAgUBgYKAQEFAoCAgUBAQKAgIFAQECgICBQGBgoBAQUCgICBQEBAoCAgUBAQKAgIFAYGCgEBBQKAgIFAQECgICBQEBAoCAgUBgYKAQEFAoCAgUBAQKAgIFAQECgICBQGBgoBAQUCgICCry/ehrwABWQ1np9S9NngrYEV9Ncm1NJ8aG0nWk3xp1BaRJFkbuwH8z71JHkkTlOeSnB63OQAAAAAAAAAAAAAAAAAAAAAAAAAAAAAAAAAAAAAAAAAAPfsvvHAGmcFGQM4AAAAASUVORK5CYII=;rotation=90;" vertex="1" parent="1">
          <mxGeometry x="552" y="275" width="170" height="170" as="geometry" />
        </mxCell>
        <mxCell id="JcrcX6TeTzpuIKKFbnjt-10" value="" style="shape=image;verticalLabelPosition=bottom;labelBackgroundColor=default;verticalAlign=top;aspect=fixed;imageAspect=0;image=data:image/png,iVBORw0KGgoAAAANSUhEUgAAAyAAAAFRCAQAAAAmmAGuAAAAAnNCSVQICFXsRgQAAAAJcEhZcwAAOKYAADimAWyJoCUAAAAZdEVYdFNvZnR3YXJlAHd3dy5pbmtzY2FwZS5vcmeb7jwaAAAAD3RFWHRUaXRsZQBEQjktRmVhbGXqsB8tAAAAEHRFWHRBdXRob3IAYXVuZ2thcm5z7mIBPgAAACx0RVh0RGVzY3JpcHRpb24AREI5LU1hbGUsOSBwaW4scG9ydCxtb2RlbSxidWp1bmdsnd4IAAAAIXRFWHRDcmVhdGlvbiBUaW1lADIwMTAtMDgtMThUMDg6MjE6Mjh5Dat1AAAAQnRFWHRTb3VyY2UAaHR0cHM6Ly9vcGVuY2xpcGFydC5vcmcvZGV0YWlsLzgxMjQxL2RiOS1mZWFsZS1ieS1hdW5na2FybnOgqM6bAAAAWHRFWHRDb3B5cmlnaHQAQ0MwIFB1YmxpYyBEb21haW4gRGVkaWNhdGlvbiBodHRwOi8vY3JlYXRpdmVjb21tb25zLm9yZy9wdWJsaWNkb21haW4vemVyby8xLjAvxuO9+QAALcpJREFUeNrtnXeAFkXSxnvJCwqscAZEMSKImSCcEQTvjIcB9VTOvAYUOBOfiC6KYUWRRUzonSd4BtBDBBRRFEE8kSRJMkiQoLigImnT8/2xeuzC7tsTqnt65n1+9e/C1NQ73c9Md1W1UkHZS3VUt6tn1UdqgVqlNqkiBRqNRqM5b0Vqk1qlFqiP1GDVTZ2l6iiLtFOPqC9UIX8GGo1GS4AVqCmqn2prWjoOUQ+qJQw3jUajJdAWqwfUIWbE4xg1jF8dNBqNlmgrVmPUSbLicaQapUoYWhqNRksDK1Ej1REy4pGp+qrtDCmNRqOl1b7IoPCb623VcoaSRqPR0tCWqTbBxSND9VA7GUQajUZLUytUfVWVIPJRR73H8NFoNFqa20hV2698ZKkpDByNRqPR1FTV0I98HKjmM2g0Go1GU1BQ81Ujr/JRX81hwGg0Go1WRkL28SIftbl4RaPRaLQ9FrLq6DOvuHVOo9FotIq20zNSC8jdDBKNRqPRKrSeqeSjDes+aDQajVaJFah2lTct8V11noEWuBwPIA9DaDQajRYLy8MDuBwtkOFfQpaqWhULyMN+/puq+BNew/cghBAST77HMJyNqv4kJKfijrs7vP4H1XEjljL2hBCSAJbiRlTzLiDb1eF7Csi7Xv/5aZjHiBNCSIKYi1O9S8jbu8vH0arY28JVDooYa0IISRglyEN1bwJSoo4pLyCve/lnNfEfRpkQQhLKaGR6k5Bh5c86L9L/k0xMYnwJISTBTPQmIYXq4F0C8oCXxasxjC0hhCScUd6ysu7fJSCL9H/ej3ElhJA0IMeLgCzedWyth8yrYkaVEELSgCL80YuEtC4VkEd0f1gNsxlTQghJE+Z5ycfqWyog2vbtNzGehBCSRlynF5DJSim1lyrQbZ8vYzQJISSNWIwqOgHZqWordZZOZ85mLAkhJM3oqP8Gaa/U7bo/GsZIEkJImvEvvYDcptRgXcP2DYwkIYSkGev0zd7zlBqf+k+aM46EEJKGNNMJyDilvkn9J5cxioQQkoZcqhOQuUqtSv0nfRhFQghJQ3rrBGSlUptT/8lARpEQQtKQp3UCkq9UYeo/eZlRJISQNORlnYAUKF2i1r8YRUIISUM8JPJSQAghhFBACCGEUEAIIYRQQAghhFBACCGEUEAoIIQQQigghBBCKCCEEEIoIIQQQigghBBCKCAUEEIIIRQQQgghFBBCCCEUEEIIIRQQCgghhFBAKCCEEEIoIIQQQigghBBCKCCEEEIoIBQQQgihgFBACCGEUEAIIYRQQAghhFBACCGEUEAoIIQQQigghBBCKCCEEEIoIIQQQigghBBCKCAUEEIIIRQQQgghFBBSKVswB5MxDiPwMvKQS6PFwPLwMkZgHCZjDrZwEFNAiE2KMA0DkY0z0Uj/89JojtuBaI+bkYcZKOLgpoAQc8xCf5yHupx0aIm0ejgP/TGLA50CQmRZiVw04xRDSws7BL2wiIOeAkLCsx0vohUnFVraWWu8hO2cACggJCgbkct9Dloa277IwY+cCCggxL943IHanEJoaW910JMiQgEh3inAEDTk1EGj/WZZyMVOTgwUEKLnfRzFKYNG282a40NODhQQkopfkM2pgkarxLriF04SFBBSMVNxBCcJGi1liu9kThQUELI7ReiDqpwgaDSNVUMOijlhUEDILn7FXzg10GgerTO2ctKggJBS1rFUkEbzZcdjDScOCggB5uIgTgg0mk87GPM4eVBAKB8NOBnQaAGsIeZzAqGApDOLsJ/QYKqKLBotJiaVLnIAlnASoYCkKyvQOMTgaYTL0Q/D8TU2sukciRnbsRGzMBz9cDkOCLWQtZLBpICkIz/isIDfGn/CS1jMAJIEfYm/iE4Bv0uOxCYGkAKSbhTjzwEGSws8gw0MHkkk6zEIRwcYFeexLoQCkm7k+B4mp2A0Shg4knA+x/m+x0Y/ho0Ckk5M8Pm5zkZyJJ2YiON9jY8qHB8UkPRho69m7ftgCIoYNJJWFOFFZPkYJfsin0GjgKQH1/sYGGex4pakKetxjo+RcjMDRgFJB6Ygw3PbuAHc9SBpTDH6e17srYKpDBgFJOkU4gSPA2IvjGW4SNozHvU8jpjjUMhwUUCSzbMeB8NBmMtgEQJgDg70OGqGMFgUkCRT5LF4cF8sZLAI+Y2lHqvVD2O6CQUkybzOJnGEBMBr09ERDBUFJLmc5GEIVMcXDBQhuzEZ1T2MntYMFAUkqUzw9A41iIEipAIGeBo/ExkoCkgy6erh8b+EYSKkQkrQ2cMIupaBooDszoIElNMVeKisrYu1fGoJqYR1HlJ6GyQgmXcNFlBApNiMXqiB2uiFLbF+KMZ7eHt6hnMEISnwsoz1aazvcBtysTeqIRsbKSBhKcZQ7Ps/XxpjaIwrs2/V/hiHMwmRkJQUool2HN0R4/sbjUPLdMHLi/hrKuYC8imO28Ofk2PbsEBfDPUs5wdCNORpx1GTmN7ZLJy+x700wzgKSBBWV7rlXAVdY3io0joPa7dbOTsQomGLh73EH2J3Vz+ie6Vdv87HMgqIH35FDmpp+kTlYEesHpAPtT9FNucGQjyg72b9SazupwB5muSA6uiOnykgXijBCBzs8SzkOFWdPqm9n3GcGQjxwBjtWBoYo7v5GC08zXcHYIj1o3tjJyDT8UdfJ5GdhXkxeUyu0dxJnZh9URESFduRqRlN18fkThbjPF/zXUt8TgGpjLXIRhXfpyG7ke6mp5XmPk7mvEBIGo2m0vIEv/NdBrpgJQVkd3YiD3v7DqY76W56DuMOCCFC6HZBmjruf/nyBL9WGznYRgHZRdnc56DWzPE9BF076qc4KxDikVzNaDrQae8n4vjQ852dmrgYCMgC/Cl0MHeluy139qHRfV/xKBxCvPKcZjRlOev5ak8d8bzZGfg6vQUkP0XuczCrEVG6mx7dfb5m+Po7sQIzMQOL8ZNjkVmH+ZiBuVjjWJeBrViKGZiBpY7V55RgDeZiBuZjvWO/5E9YjBmYiRXYGfHEVsPJOWCrtjzBr5muiXNYQAqQh/qiwYwy3U0/feu8ft3QlbdjBK7HkeUE7AB0xnORF2POQQ5OK/dllok2uBdTIhaSn/AK/oomyCizcdkEV+LViF9NSvA57kGbchlIdXEa+kZ++PF6PIvO5RZpq6IpbsDb2G7oisO048m1pkDeyxP8msmaOGcFxGvuc1BriSmOPUC1NR4/beCaa3FnigKlargY0yOJRRHewIkpK3yeNzb1pGYRrkuRIpqJ67E4Er+24zkckSJiJ+HNiKbMr3ARqlXqV33chXUGrtpfO6m6hd/yBL9mqibOSQFZjPONBjOKdDc9ujSBe8S/efpps+UVFK60vhDyRQUdzva0QzHG+pfHHR4WVKuhp/UvkVEeGggqnIAvLfu1Fld4yhl6VHxJ6y7thOoOwcoT/FtHAzVxzgnIZvRCTQvBtJ3upkf3BnKF6NVWoq3nKDXEWIvfHjk+dr26Wtx9mI7DPfvVxOJUvR3dfbw09bL4HfIR9vPs2UlYKnptnXCd6szSdZjyBL9WXbwmzikBKcZQH4+clLnSAv4SjZ/HC15rGhr6/Fqzk0S8A5f6/PVaWyoSHeVzc7Mm3rbi1ybfSx9/sfTKNNjnW3UWvhC8ui4N1o1zPUdrq7/kbR/kCb5EOCQgnwnkPrub7qanm8bHWmI/+xeoEyBGT1p4G+sUwK/jsNm4Z8MD5AJWtSAh+TgmQMT+ZDwHSl+HUXGzHqnvtiKt3N8e+XiXLE/wa83xYbIEZA26lslpicKibwH/lNZHmY/8xR6aXVf8FfKm4Qj8NbD8Fxj1a1KAhhKlXyFmEzV24pSAEfub4V9yWMDR3ECoLfkS7ZUGRDrW5csToqqJc0BA5HOfg1p95EbYsPADrX/viayYnxAiHXChwft/LsQvd69Bv75HoxDLoyYX2O4MEbGXDPr1jTajMFV2pMQIHOVwZ+sCDPG5gGzKaqA7fom3gJRghKf8EXt2pPXcnt9ZqfXtcYGrPBAqOqcY2y1ahb1CfT+a27T+a6iIXWPMr69CZe7UNpaBWIx2oSL2sIAPj2mvsiqiUW66PMGvNQpZExepgMwI/AluOt1tfgSPVok2GyP8wsO3oTPcTNXDdwnpVxtDfk0OnSz+X0NPy0khPbvSUMT+FdKvTKwO7UNX7bd0FGkzS0I/5WasVYj0hcgEZJ2l3GdX0t280Fr7Q4flNoGWlCZq+BcKPAtmFiXODu3XuUb8GhPar6pYZMCvIjQN7Vn30F60jOh1o3LslicEqYlbFR8B2Yk81HU2mGbS3bxwjXbZIdzkvSXUMpHJibqbgF8mJuolIqkdJiZqiQye7gb8GivgVx1sCbmIpssyvNbquI6mPCFITdz2OAhIFLnP0ae7eUGf+rgi1P//qkhMrjKwrdhAwK9qBrLo+ohELEfcr3UiOTx/MHBGzhUiEQu3ULpc+/8/YXFUfxYibcW2HYShbgvIQvw5NsGUTXfzJq06X8JVhF8uEo8G4otYU4R+qX+L/yItRfySP/3uVaGITRV/127gwEuKfnnPVqJM9OUJ/u1MzHZTQPLRPUVTNZdNIt3NC8u0nvQP9f8fIBQP6Y46jwv5dZOwX78I5epXDbkksyc3CEVM+k18jpBf4Y57ekL7/9t4JdyKHE+95tyzKuiK790SkEJncp+jSnfz9v6my5+/LtQ2nlQshgvft9QBOtL9jaaJRWymsGfthPyS3gt4QyxiYc6kudbwXqIe98oTgtTE7XRFQCYEariQrHQ3b5xocDFkllgccoXv+jQn3lv3ZIRYxN4R9kzqW/J0Yb8eE4vY7BBetNH83ycZHsWulif4taYelvqMC4iruc+20928cZXm+nVD5K9/JhaF3sJ3LdUDTfqMh3+IRewVYc/qCPl1grBf94lFbHKIt39dhufVBkew2+UJ8jVxRgVkC3Iczn22m+7mjUe0Vw9eZDVBLALSJ5NI1ebWFPbrRbGISZ9nLzWqWgj7dY9YxD4J7MMq7f/9qKHRG4/yBP81cd1TLCgaE5B45D7bS3fzxkjtlYOnFU8Vu/uHhe+6jZBfDYX9+rdYxN4Q9mwfIb/aCvvVVyxi0wL7ME77f79rZOzGqTzBf+ZlZTVxhgRkKk5ObDCDpbt5Y5H2qsEPtl0pdufSjfguFPLrGGG/5L7ZPhX27Gghvzo7+80W/Et7gPb/lj90OI7lCX7tREyyIyA2c58boB0uQzb+jj7ojR64EZeglbXPSD/pbt4o1C5OBE9VLRZLKpzk6MKH9CFBq8WelO+EPbtIyK9ewn5NFPKrToi9vhu1C52y5ZM2yxPqohUuwY3ogd7og78jG5ehndj3qJeauBVmBWQrHrCQ+1wL7fEwJqXoVrUO43Ef2lr4YbOQJ/pAHqu53ikh/u/TRe64mnhNzNtCv0V/8TfLA53MDpOrnBkp7NcvqC7iV/sQPuhOaDxO9IUvL+DpOv5GXDv0xnisq9SPjZiEh3GmhWMxMvFAuWOkhQXkXcPu18TFGOVjC/tnDEMn41kRkktZumrx+iH+74ecrLYANgoV7M0S90ymQkW+89J0oYlpk7hnMhUqj4TwQDehXyF4t7MNzyxVcTZe8/HCtg3v4qKAx595t3fjKSAHYxDyA/3M3+EhoRYL5gVEP8mvC/x/LxG528EGNiDPFvDrSAMtuseKRMxE+8mmAn6ZaD+ZJxKx4O0n11pNATEpIA3xcMClz3zk4WAKSPmSlldCHlu6BU+JlV+ZFBD9cs6EEP/7qQKr0z8amHYkSvZMNMgrxEGh/WpioGWhTMneOwb8+kFgCfuMENf/2OpdmxKQRhiAX0N5thP/xBEUkNK6i76eiur1bEVfI593kgLyjfZqz0T6Rn0nTBD+FIl6oZpfmHyjfs6IXz+jfki/mhtq6HFH6IiND3H1Qdr/fYHjAlIdPYR2GQsxSHtIXeIF5GKsEX285wu8hZsUkAKtxN0a6v/vEOpO98EPMMPIkL9BniG/duCokN/OOwx51j9kxEx1pN0Qclu5U6ir36KdngucFpDT8Y3or7EandNXQGphkIEHvAS5Qpu2JgREn+N/Rqj/fZG2YWMqewXmCPOgtzKyTFTKhBBJGFUw0ZhfBdrOaansUoO/5EuhlkiXhLq2LtNQtvZeVkCqoq+RI+yGhRrzsRWQZphrcFLY31kBudRwvfU/A9/nlTBJfuCNv3pYZtSz4B2eHjTq1+LACxSHGsi/Kkvw/nfDQl5Z1/O7i7MC0sjgy8ZskaSLWAlIWyObtbtYGXJpwpyAPKi9XtjixWCFeyeH3NbzsrwYpCSqeqg1cy8UB5wQLzfeNvyTQF2x6mGOYb+2BexHG7ZN5wbtFXIcFZBmRpu0ApsEl+5jICAXYBtMky92qoKsgLypvV7YN5USdPd9j+0Mv7OWMtV3unUm3rPg144AC2wXG9v9QLkR57d4rCG+suBXfoBmRj1DJ2J/qr3GW04KSGtje4tln+GL00VAuhhc0S7LFiEJkRUQ/aluEnk9T/mq0r+8XPWpSRagma/P/imW/CpCDx8NejJwp5HV7IqY7Gs59ugQNRb++FW7GFv+O3KgwDWf1V5nroMCcorxb/tSCnFJOghIeytvbqX8hOOcE5Ad2qn9dpHrfOFxqq4v3oxcJ+teT1S4SLgTmY5RaOSxdcloq35twF88bunfYmmq+p0XUM+jrH0pcr1u2tr7Hc4JSIuA5dFB2IlOSReQllZOH9/FGoFSMemuvLoNrw5ij9MAzdtrTdyGDbDPVHTUfvSPi8Cvn9Fb06qzHvpYfoJLeR8tNRE7O0SL9OCswy2afZoDMFAstba9JgZHCd9deAFpIt5oU/cEn5hkAcnCSuuP+LTQxYXSAqJbb99f8FrbMAx/qmAdvQpORP8QbVPCMxPd0biCu/8DrsNnEfq1Gc/h1Aq+EqvhNDyPzRF6NhHXVpiFdBB6GOgT5kdEcnFCBQuAtfBnvCZ6ONt+2m9WtwSkJmZY/zVWh27r5KyAZGBUJA/4044JSG/tFaUz1LZhEl7EfbgV2bgHA/B+ik7HdlmE4XgYPZGN7ngQ/8YcAx2vgr3JfYTB6IVsZKMXBuOjSL479qQYc/AaHkR3ZKMn+mG4gdMvgvEDxuIp3INs3Ir78CImiZ/r+aN23NzvmIAMjuSXGBPyuA1nBeTOiB7tElzglIC8pr3i5yCElGeydtz82ykB6RzZy1CPJArIwZY3+Mqy3uNmnx0Bmam94hDOFoTshv48ROmFvDACUhdrI4vUVhySPAEZHenD95RDArJVm4XUk7MFIT7fq6uIJ6OHEZBBkcZqZNIE5IKIH75CHOOMgACHaTNqCCHl0aWoHi5+xeACcrylWrfKOTdJApKBmZE/fm87JCDna67YmLMFIbtxoPWX1OACMiryaH0deCvdQQG5wIHHryTwN4i8gNyrveZPnC8IKcPP2gmxlzMCcrTxLmleOCc5AvKFE4/gMGcE5FXtNb/kjEFIGf6rHTNDnRGQN5yI2JdJEZBWjjyChdpCJFsCMk17zX9yxiCkDP/QjpnpjgjIvqKHWoXhxGQIyCBnHsI7HBGQLdrP8bs5YxBShru0+6xbHBEQd3Ion06CgFSLpNtS0Dd/OwICNNFc81zOGISUQbeif4iBawYTkJnOxOx7Xz25HRWQPzv1GB7uiIBEMRwIiS9RvHIFEZCmTkWtU/wF5EmnAprtiIDoP8h/4ZxByG9Es+gbREBucypuufEXkJlOBfRNRwREvyU4jbMGIb/xVSRpJ0EE5O2Yxc1xAclyIiO67KpghhMCok9KfJWzBiGeJzITie/+BSTDmT7XpRShfrwFpL1zj2JjJwQkirIoQuJKNKW3/gWkiXOROz3eAnKLcwE9ywkBiaIxAyFxJZrmP/4FxL0udjfFW0AGOhfQ2xwREPut4QiJK9G0H/UvIHc4F7mn4i0gY5wL6EBHBMR+c2pC4klUByD4F5BBzsXuvXgLyBTnAvovRwTE/vE4hMSTqI5g8y8gw5yL3aR4C8hs5wL6jiP3YP+ATkLiSVSHQPsXkJHOxW5WvAVkuXMBHe+IgGzSXvd+zhyEAOitHSv5jgjIx87Fbmm8BWRNAj7pTH1F6XoDX8SZgxAAnTUjZX9D1/UvIJOci93qeAvIIucC+r4zAtJec92jOHMQAqCpZqR0cEZAPnAudgvjLSAznAvoW84ISDdtH+MdnDtI2rND21P2dmcEZIRz0ZsWbwGZ6FxAX3ZGQJ7TXnkuZw+S9szRjpPnnREQ9w6C+yTeAvKmcwHt54yATNRe+S3OHiTt0TdA/cwZAXnUuei9Hm8Beci5gF7tjIB8r71yDmcPkvY8qB0nPzgjINfEMHpOC8iVzgW0tUO1LA01V+7C2YOkPZdqRklDY1f2LyBtnYve5fEWkBMdC2cJ6jkkILpOmS04e5C052jNKDnDIQGpjxLHond8vAWkGn52KpxzfN+BSQG5RXPl6tjJ+YOkNQWooRkltzokIArfOBW9n1A17icSvu9UQAc6JSCDYvY4EmKb+dox8oxTAjLYqei9F+AOHBOQu50K6IVOCcjHMTsgkxDbjNCOkQlOCcjFTkWvZ/wF5GiHwrkNdZ0SkLUxzGIjxCZ9tWNknVMCUt+p8t+j4i8gCjOdCedbgfw32VE4S3PtKziDkLTmcu2EbY7ZgeYLd1YNpgXy3zkB6elMQM9zTkD+qLn2cZxBSFpzrGaEnOKcgFzoTOzuSIaA7OtILtF6bU8d+wJyo+baNVHo2IAuxHT8E33QDdnoiX4YgWWOeLYWI5GLO5GNW9EbQ/C5I4sJOzAZQ9AbtyIbdyIX72KtIxFbiuHoh57IRjf0wSuYjiLnnraamhFyk3MCUh0bHHnu/pAMAVF42YmA3hvQe5MCMkB79cXODOZivI/LK9xFaoK7MC9Cz1YgB80q8CsT5+OtCF9fduJNnIvMCjxrjr74NsKIzcXfcXAFftXDFfgAxc48c4u04+Np5wRE4T4nYvdCQO8dFJDDHHiPzsfeDgrIOF8/Z3SU4I0Kp+hdloHzIjmEdzmu0nxZHoRnI3j+CvEMGmtqpK7GiggiNhPnIkOT+OJKD7uR2vHxoYMCUhebIo9cEY5IjoC4cDxrTmDfTQrIqli0Z1uBMz1Fqip6YrvVb6LHKny/39OOtyxuM3CcJ78ykWv1fX8bunssLWsf6RfS7zyi9XO1gwKi8HDkkRsa2HcnBeRg/BppONdgLycFpESbWHx15I/iaNT3Ea0TrE08+TjLh1+18JLFxYOaPjzrZO19dblHWSu1LAeKgK/SvuuXOCkge+O7SOO2FYckS0AUekca0EtDeD7bqGdtNFc/KeIh/IrvZgiNrOyHfKftkRRVd+MHfPt1jJVt9bk4wHcjolcjfvpO1Hh4stGrzw4xa0SbgH9vCM8dFZAaWBhZOD8M4bdpAblWc/XakW5pvokqASL2Bywx7NePAeRDQSHXgUWXittm5hv2axn2D+BXFQyP8OkrRm2Nf9c5KyAKH0cWt29QPXkCotAyorTKfDRxWED6a6+/PLIHcbq2kV3lE+JWg34VoUNAvzLwntGIvaPZnq7czjb6orBFkwKRaulvVmTP3zKtd086LCCNsTGSqO3ASaH8dlZAFLpHEM6SQP2v7AnIWO31x0Q0fH/FYSGiZjI//9EQfu1jcLlota/dot3tCYMRuy6EX0cafRlIxeiIW7XODjlznBtJc/fbQnrtsIBk4B3r4Xw8pM+mBWRFpBOLqXVUhQxjB40uQ61Qnplbnb44lF+ZxpJ6Jwf+Liq1PhE9gblaz751WkAU+luP2VuhfXZYQBQy8XkM1vBtCkgx6miuf20kg3dN4OUr0xucV4T+RacZ8WtqaL+6GopY65B+1Yyodv6aiPcHwwuI7T2kL7W7RjEXEIV6hifksnzqK50yGgEBWmqu3yaSwXunQOQ+NeDX8gBH5OxuFxmJ2IWh/apm5BtkgsAveU8kz6BO+FoZvv5sgcjVwHhr8Zqvbc6aAAFRaIxFVsI5OXDtuV0B6aq5/l4RrKQWBOyjY76GpY+AX9WwXtyvDQE7rZlPNL5CwK99UWD9GSzRjt+/xUBAFOpiipV4LcCBIv46LyAK++AL4+F8z2ONcvQC8pjWg5XWB+84kcjVMZB3d6SIZ8+L+zVYxK9m4n5tF1jUUFD4yPoz+K3Wp8djISAKNS3s/U4TeeWLiYAo7IUPjIbzRYGFDlsCMkrrwQfWB+/dQrGT3khfLeTXJeIR6yzk2Rphvz4R8quX9Wfwfa1P78VEQBSq4R9GPR2j3UlNmIAoZKCHoc/ibegh6Kd5AVmi9eAp64P3dKHYSWeQvS3kV2PxiDUS8uw/wn49LuTXmdafwSe1Pi2NjYCULriZaedUhL4CqUKxExAFhTMMdIyZH7BGOToBKdIutt1gffDuJxQ7ac8fFXt92SLq1y8hE2XNLctcJ+TXAdafweu1JY5FsRIQhWPwjbiPa3CasJcxEhCFOsgVbLW9DX1F8q7sCghwvMaDdpaHbrHYdHiesGd3iP2qsvX9S8T86iEcsXOE/KpiPZWjrcajE4x7MFt8LqmOHoKvLoUYpG3GmnABKX0QJgkEswT/CdGBMloB+as2j8Pu4N0iFrvTLb+VRvWrfi3m1/WOLkYq4W82PfU0/lwZQwFRUDgUI0XG80RfvZUTLCAKCqdiTIigFmOMtprCZQF5WOuD3ebQ28Vid5awZ9linskuJswT8+tm4Yh1EPPM7smOa7T+9IupgCgoHIthoRbgpqCjMd9iKSAKCi3xXICepGvwBJoa9cu8gLzjXBJlDaHYXSzs191iv6psttMqMb+kS/akssNqWX4Cx1tPN7ApIAoKTfFEgBfDH/GswZdlwwIyWaRYKnXd5kV41eMpY4vwAjqK5h9U3C7BfDfcBVov8iwPXylJvkvYr2fFMvNlN2CLxPbeXhCOWE8hv5pbfgIHaj0yfzzEcqEamsqtKjrhBSz2+JLyKjqLvdpVnnA82ZyAAItwruEbKLUjcQMG4H0s3S3VdwcWYCRycbVQ1aXOzrdyvl6hdvq52fLwvUgoftLZ758K+XW8eMSOdbRy5iVnK2fCLVbWsHLO/XfoKpZQkjqt/Grk4l0s2K30tgBLMRZP4YbAJ5z7sw6YW+764gICAB+LJ8rq3hYb4DAciqxQx6T4t5PKabFZWmh8Oc3y8H1aKIbLhP3aKvSmL3+wQDehhaJtwn4tEvoln7H8BJ6qTYm1xTS0szrvVEcWDsVhaGAgozSVHYERe9y7EQEBCpCnzZGItzVAnvEs87J00fpjl0VC35HynC3i2Thxv8aK+HWOgYgdLuLZEstPYAONP5dZ9KUEQwOd5xgfq4OcCtsOGRKQ0s2c7oLtQlyy6uiOnywPlxytVxsse9RaIJIPGfDrNQG/9jOw/FGAfQU8ez2SZ0tvJ1t++tZrPepr2aNfkRPyHBpXLQNdK20ualBAAGCWeBVk9NYRC2Cf4Vq/PrXs0TCB5RgTp0jsEGga8pCRiD0oUO293chkXMtJYUuFvoPXiAhG6VLtSkH8rA2+THHHhgUEAEYbKt+Lwo4yfERm5ejrCJ617FFh6G27HoY8C7s/k4XNRvz6MfSyrql9hrCHnDazupwLeOltPD+ikfqJofK9KOxADNVU31kQEGAbcrFX7IOZhVzLpVJl2alNkO5m3afxoeK5LzYZk7ZwGU8vGIvYM6H8OsbYmRv5IVt92+8GrZO8agYOCvD+/A0Ra50enWWil4feAlYEBLCX7mbGqqArfkC0NNP42D4Cn4I34ssoV44kzVchsuE7GjwGtQhnhsg1nGEwYmG6GN8UwZOni2PziEfrJnQ3XhPnQnmCNQEpHdbtYhnMDpiD6LlY+0Zvn604IWBM7458iaNiO8hwMsLawPVJLxqOWNAjDlqKJxZ7QZeQcIkDI9ZWTVyU5QlWBSSO6W5HRLIZVxH6o1rXR+DVukBJoFcYfMv/nf8LlJz9jXG/5mGfAJ71Nu5XMS4LND42RPDU6XOwHnBk1H6M5okuT7AsIECc0t3qIMdI1ksw3tD6G80G/3rfXyHXWKkRBnJ9+tXI0pfmNzjIp2d2Tvsrwk2+d2W+i+SZ09fUvOHMuC1AnoGW6q6UJ0QgIEAc0t1S5T5Hg75xW7+IPPsFV/p4SHMttp5/F1mePTsT66z59b2Pcse6eMvibznEx+7RJdaroX5H3516tlNjd2MMauI6Bvr6jkhAAOATse5A8tYa/4Vr7NQ2LugcoXfDPa3tn455lv1a5alrVxaes7CoVv5tfzDqe5qkV1uO2FxtkxAFhcZ4O8Kn7UJtwkGBc+N3psM1ccHLEyIUEFfT3fS5z1HRUrt+WRyhd1sxEE1SeHcaxkYU1yk4L8X7377IMZZQnJp8PJji+a+K8yN6jSnBmJQicgjyItk43yW+WdoXQDdxsSYuXHlCpAICuJbulole+AWuol+hnhGxh8WYiLvQqtwe1z7ohMexNGLPvsMgXFDuJPfqaIFuGBvxu2oBxuA2tCjXBnQ/XIhnjFTp+2ExHkPHchv+tdAKd2NS5K9XU7Xj4BZnx/BWp2riwpcnRC4gALBQ7FzmsLnPK+Ayz2vvINcRT4uxBnMxAwux0bEYbsZizMBsrLS0ke/9a3wlZmMGFke2r1D5+v1CzMBcrIn0+7Ysj2jHwctOj2NXauLaCySNOCEgpR93h0cazBNFzl03vYqq32MgJOmcErMt9Ir4Cm0jne8OwlCR+3BGQKJMd7Pdmj34e31D7Sfpd5xfSKJZo317b+jMt1Lq0Ty03JJqPMsTHBIQAFiHbMvpblG0Zg/Opdr7GcQZhiSaAR7KVOPCr8ixfChUBrqI5vU5JiClCzWnWgtnRwuVx5K8qL2jdpxhSKJpE/MdkN2xWRMnX57goIAAwOiUCaEy1hRjYzd4lnm4rzmcY0himeVhBHwbu7uagGOMz3eNjJQnOCogptPd6kfamj0M+gftZs4yJLHcqH3+T4jlfRViiHaH08XyBGcFBADWGEl3q4Ku+D62A0jfxGEvQ8chERI1m1BH+/w/Gtu7yzdUE2eyPMFpAQGAqThZOPd5dqyH0CIP9/gQZxqSSLwcCrw01ne4EH+OVXmC8wIime4mlfscLfoDM+tF1JqDEJNs9tA9rFUC7nM0DotNeUIMBAQAtoROd3OrNXsYnvBwtzmcbUji6O3hyX86EXe6M3RNnK3yhJgICAAsCZzuloEuWJWYYbTRw2kqtWOYiUJIKlZ52P/IRH5i7ncdslElcHnCfEtexkhAgGDpbq3wRcKG0t88tQEnJElc6OGpvyFh9zzDQ9uWPcsTxlj0MGYC4jfdrRGGxKKtgT++8nTvH3DOIYlhjKdnfnri7rsEI3zUxNkvT4idgABe091qoLvDrdnD0cbDw3RAyEbNhLjC99jfwxPfNqF3vxU5yHS0PCGWAgLo093Ox/IED6jRnt5HznH0YCxC/L2FX5D239y6mrgzIypPiK2AlE6jFae7NceHiR9SrTwNqf6cfUjsedzTs9428XH4DCc4V54QawGpKN1tn5i0Zg/LWI9V9yM5/5BY8x+PuUjj0yAWe9bE1Y64PCHmAgKUTXerjmznTsAzx8ke61+mcg4iseVL1Pb0nJ+aNhHZjF6/1cS5UJ6QAAEBgOk4xWLusxtM9/hmVi9xacwkXZjisZyuCr5Kq7gsQRe0whQHPEmIgKQnN3lM7tsbExksEjsmeCgdLLXbGCwKCPFLvueKmGrIZbhIrBiC6p57Pv3IcFFAiH/+4aNCNRtbGTASC37FDT6e7FcZMAoICcZffAy0QzGBASPOMxlH+niqL2LAKCAkKBvRyFdbyauxjEEjzrIUV/o6RK5xgtonUkBIBEzw2bOzOm7CPIaNOMdc3Oh53+P37KtPGTYKCAnHg74GXamdjBewkqEjTvAtnvfU341nb1JAiDgluCLguQFNkY1n8BG+5TnqxDKb8S3GYxBu8rXjUdauYq83CgiRYDv+KHAE5t7IotEs2N4CT+up2MGBTwEhMvyAw0XOUabR4mBHpFHTIgoIscDqwEsBNFq8rCnWcMBTQIgsG9CCkwst8XYU1nKwU0CICQk5hhMMLdF2LDZwoFNAiBl+wYWcZGiJtXOYL0gBISYpQY6vWl4aLR6WgV4o5gCngBDTvOG5ETaNFg/bC8M5sCkgxA7L0YGTDi0x1hErOKgpIMTmUtZQZHHqocXe6mIIa84pIMQ+q/E3VOUURIutVcW1+I4DmQJComIhuvrs10ujubFpfj7mcABTQEjUzMJVqMUpiRYby8TVmM2BSwEhrvAThuAkTk005+1o5PKUcwoIcZE56I9OyOQ0RXPwq+NsPMnDziggxHW24SM8givRkvUitIitDlriSjyCj7CdA5MCQuJFCVZiBj7Gu3gNzyOXRrNgz+M1jMIEzMAqDkEKCCGEEAoIBYQQQggFhBBCCAWEEEIIBYQQQggFhAJCCCEUEAoIIYQQCgghhBAKCCGEEAoIIYQQCggFhBBCKCAUEEIIIRQQQgghFBBCCCEUEEIIIRQQCgghhBAKCCGEEAoIIYQQCgghhBAKCCGEEAoIBYQQQggFhBBCCAWEEEIIBYQQQggFhBBCCAWEAkIIIYQCQgghhAJCCCGEAkIIIYQCQgghhAJCASGEEEIBIYQQEoGAFKb+g5cZRUIISUNe1slHgVKbU//JQEaREELSkAE6AclXalXqP+nDKBJCSBrSWycgK5X6JvWfXMYoEkJIGnKpTkDmKTU+9Z80ZxQJISQNOUonIOOUGpz6TzKwgXEkhJA0Y50+BytPqW66PxrKSBJCSJrxil5AblWqg+6POjGShBCSZpylF5Azlaqjdqb+o6pYwlgSQkgasQhVdPKxQ9VWSqkpOp25gdEkhJA04lr998ckpZRSqp/uD6thNuNJCCFpwlxU0wtI31IBOVn7hzgFRYwpIYSkAUVop5cPqFbqNxbp/7gvo0oIIWlAHy/ysUD9jz76P6+KUYwrIYQknJH67XMoqN67BKSJKtL/g0xMZGwJISTBfIpaXuSjUB2syvBvD/8EmfwKIYSQBH99eJIPqGGqHM1VsZd/loFe3E4nhJDEUYQcVPUmH8WqhdqNkcrbP8UpmMNYE0JIgvjaW+ZVqY1Qe3CE2u71n1fD9axOJ4SQRLAY13qp+/jdtqlDVQX0Vd7/C1RFJ7yK9Yw9IYTElPX4F87ylnW1yx5QFVJLLVXwa83RBfdjIIbQaDQaLRY2EPejC5rB/4yvFquaqhJa6xor0mg0Gi1trUC1VSm4kyGi0Wg0WoXWXaUkw3s2Fo1Go9HSyEaoDKUhU01moGg0Go1Wzr4sPf9DRz01m8Gi0Wg02v9snspSHmmk5jNgNBqNRlNQUHPVAcoHWepzBo1Go9Fo6kvVQPmkNrfTaTQaLe3tbZWpApCherAuhEaj0dLWClUvfeZV5bQJUp1Oo9FotNjbkl3H1galhurlvc0ijUaj0RJg21RfVUuJcLh6x9t5ITQajUaLuRWrEeowJcrhaogqZGhpNBot4eLRXBnhYNVHLWSIaTQaLYG2UN1f/qxzE7RWD6nPmZ9Fo9FoibCdarLqG37D3A91VAd1mxqkPlTz1bdqkyriz0Cj0WgxsCK1SX2r5qkP1SB1m2rvrcdVRfw/DGyxUGc0QI8AAAAASUVORK5CYII=;rotation=90;" vertex="1" parent="1">
          <mxGeometry x="680" y="249.89" width="59.6" height="25.11" as="geometry" />
        </mxCell>
        <mxCell id="JcrcX6TeTzpuIKKFbnjt-14" value="" style="endArrow=none;html=1;rounded=0;exitX=0.25;exitY=0;exitDx=0;exitDy=0;" edge="1" parent="1">
          <mxGeometry width="50" height="50" relative="1" as="geometry">
            <mxPoint x="722.005" y="254.67499999999984" as="sourcePoint" />
            <mxPoint x="819.65" y="255.13" as="targetPoint" />
          </mxGeometry>
        </mxCell>
        <mxCell id="JcrcX6TeTzpuIKKFbnjt-15" value="Ch.2" style="text;html=1;align=center;verticalAlign=middle;whiteSpace=wrap;rounded=0;fontStyle=1" vertex="1" parent="1">
          <mxGeometry x="570" y="330" width="60" height="30" as="geometry" />
        </mxCell>
        <mxCell id="JcrcX6TeTzpuIKKFbnjt-16" value="Ch.1" style="text;html=1;align=center;verticalAlign=middle;whiteSpace=wrap;rounded=0;fontStyle=1" vertex="1" parent="1">
          <mxGeometry x="570" y="240" width="60" height="30" as="geometry" />
        </mxCell>
        <mxCell id="JcrcX6TeTzpuIKKFbnjt-17" value="" style="endArrow=none;html=1;rounded=0;exitX=0.25;exitY=0;exitDx=0;exitDy=0;" edge="1" parent="1">
          <mxGeometry width="50" height="50" relative="1" as="geometry">
            <mxPoint x="721.995" y="264.67499999999984" as="sourcePoint" />
            <mxPoint x="819.64" y="265.13" as="targetPoint" />
          </mxGeometry>
        </mxCell>
        <mxCell id="JcrcX6TeTzpuIKKFbnjt-18" value="CAN Bus" style="text;html=1;align=center;verticalAlign=middle;whiteSpace=wrap;rounded=0;" vertex="1" parent="1">
          <mxGeometry x="739.6" y="233" width="60" height="30" as="geometry" />
        </mxCell>
        <mxCell id="JcrcX6TeTzpuIKKFbnjt-19" value="USB" style="text;html=1;align=center;verticalAlign=middle;whiteSpace=wrap;rounded=0;fontStyle=1" vertex="1" parent="1">
          <mxGeometry x="100" y="275" width="60" height="30" as="geometry" />
        </mxCell>
      </root>
    </mxGraphModel>
  </diagram>
</mxfile>
